<svg width="14" height="14" viewBox="0 0 14 14" fill="none" xmlns="http://www.w3.org/2000/svg">
<path d="M7 0C3.13483 0 0 3.13425 0 7C0 10.0928 2.0055 12.7167 4.78742 13.6424C5.13683 13.7072 5.25 13.4902 5.25 13.3058V12.0027C3.30283 12.4262 2.89742 11.1767 2.89742 11.1767C2.57892 10.3676 2.11983 10.1523 2.11983 10.1523C1.48458 9.71775 2.16825 9.72708 2.16825 9.72708C2.87117 9.77608 3.241 10.4487 3.241 10.4487C3.86517 11.5185 4.87842 11.2093 5.278 11.0303C5.34042 10.5782 5.52183 10.269 5.7225 10.0946C4.16792 9.91667 2.53342 9.31642 2.53342 6.63483C2.53342 5.87008 2.807 5.24592 3.25442 4.75592C3.18208 4.57917 2.94233 3.86692 3.32267 2.90325C3.32267 2.90325 3.91067 2.71542 5.24825 3.62075C5.8065 3.46558 6.405 3.388 7 3.38508C7.595 3.388 8.19408 3.46558 8.7535 3.62075C10.0899 2.71542 10.6767 2.90325 10.6767 2.90325C11.0577 3.8675 10.8179 4.57975 10.7456 4.75592C11.1947 5.24592 11.466 5.87067 11.466 6.63483C11.466 9.32342 9.82858 9.9155 8.26992 10.0888C8.52075 10.3058 8.75 10.7316 8.75 11.3849V13.3058C8.75 13.4919 8.862 13.7107 9.21725 13.6418C11.9968 12.7149 14 10.0917 14 7C14 3.13425 10.8657 0 7 0Z" fill="white"/>
</svg>
