<svg width="14" height="14" viewBox="0 0 14 14" fill="none" xmlns="http://www.w3.org/2000/svg">
<path d="M14 2.42063C13.4849 2.66181 12.9313 2.82424 12.3503 2.89746C12.9436 2.52276 13.3992 1.92904 13.6132 1.22149C13.0585 1.5685 12.4437 1.82075 11.7892 1.95673C11.2659 1.36792 10.5187 1 9.69267 1C7.83825 1 6.47558 2.82486 6.89442 4.71924C4.508 4.59311 2.39167 3.3872 0.97475 1.55435C0.22225 2.91591 0.5845 4.69709 1.86317 5.59906C1.393 5.58306 0.949667 5.44709 0.562917 5.22006C0.531417 6.62346 1.48517 7.93642 2.8665 8.22867C2.46225 8.34434 2.0195 8.37141 1.56917 8.28035C1.93433 9.4838 2.99483 10.3593 4.2525 10.3839C3.045 11.3825 1.52367 11.8285 0 11.639C1.27108 12.4986 2.78133 13 4.403 13C9.73583 13 12.7487 8.24959 12.5667 3.98892C13.1279 3.56132 13.615 3.02789 14 2.42063Z" fill="white"/>
</svg>
