<svg width="13" height="13" viewBox="0 0 13 13" fill="none" xmlns="http://www.w3.org/2000/svg">
<path d="M10.2083 1.08333H9.66667V0.541667C9.66667 0.398008 9.6096 0.260233 9.50802 0.15865C9.40643 0.0570683 9.26866 0 9.125 0C8.98134 0 8.84357 0.0570683 8.74198 0.15865C8.6404 0.260233 8.58333 0.398008 8.58333 0.541667V1.08333H4.25V0.541667C4.25 0.398008 4.19293 0.260233 4.09135 0.15865C3.98977 0.0570683 3.85199 0 3.70833 0C3.56467 0 3.4269 0.0570683 3.32532 0.15865C3.22374 0.260233 3.16667 0.398008 3.16667 0.541667V1.08333H2.625C2.19402 1.08333 1.7807 1.25454 1.47595 1.55928C1.1712 1.86403 1 2.27736 1 2.70833V10.2917C1 10.7226 1.1712 11.136 1.47595 11.4407C1.7807 11.7455 2.19402 11.9167 2.625 11.9167H10.2083C10.6393 11.9167 11.0526 11.7455 11.3574 11.4407C11.6621 11.136 11.8333 10.7226 11.8333 10.2917V2.70833C11.8333 2.27736 11.6621 1.86403 11.3574 1.55928C11.0526 1.25454 10.6393 1.08333 10.2083 1.08333ZM10.75 10.2917C10.75 10.4353 10.6929 10.5731 10.5914 10.6747C10.4898 10.7763 10.352 10.8333 10.2083 10.8333H2.625C2.48134 10.8333 2.34357 10.7763 2.24198 10.6747C2.1404 10.5731 2.08333 10.4353 2.08333 10.2917V5.95834H10.75V10.2917ZM10.75 4.87501H2.08333V2.70833C2.08333 2.56467 2.1404 2.4269 2.24198 2.32532C2.34357 2.22373 2.48134 2.16667 2.625 2.16667H3.16667V2.70833C3.16667 2.85199 3.22374 2.98977 3.32532 3.09135C3.4269 3.19293 3.56467 3.25 3.70833 3.25C3.85199 3.25 3.98977 3.19293 4.09135 3.09135C4.19293 2.98977 4.25 2.85199 4.25 2.70833V2.16667H8.58333V2.70833C8.58333 2.85199 8.6404 2.98977 8.74198 3.09135C8.84357 3.19293 8.98134 3.25 9.125 3.25C9.26866 3.25 9.40643 3.19293 9.50802 3.09135C9.6096 2.98977 9.66667 2.85199 9.66667 2.70833V2.16667H10.2083C10.352 2.16667 10.4898 2.22373 10.5914 2.32532C10.6929 2.4269 10.75 2.56467 10.75 2.70833V4.87501Z" fill="#B8B8B8"/>
<rect x="3" y="7" width="7" height="1" rx="0.5" fill="#C4C4C4"/>
<rect x="3" y="8.60001" width="7" height="1" rx="0.5" fill="#C4C4C4"/>
</svg>
