<svg width="13" height="12" viewBox="0 0 13 12" fill="none" xmlns="http://www.w3.org/2000/svg">
<g clip-path="url(#clip0)">
<path d="M12.3535 3.5225C12.3535 1.93296 11.0405 0.637787 9.42922 0.637787C7.8179 0.637787 6.49502 1.93296 6.49502 3.5225C6.49502 3.57156 6.49502 3.6108 6.50497 3.65986H6.49502C6.49502 3.6108 6.50497 3.57156 6.50497 3.5225C6.50497 1.93296 5.19204 0.637787 3.58071 0.637787C1.96939 0.637787 0.646515 1.93296 0.646515 3.5225C0.646515 3.57156 0.646515 3.6108 0.656461 3.65986H0.646515C0.646515 8.09486 6.49502 11.3622 6.49502 11.3622C6.49502 11.3622 12.3435 7.65332 12.3435 3.65986H12.3336C12.3435 3.62062 12.3535 3.57156 12.3535 3.5225Z" stroke="#848484" stroke-width="1.3" stroke-miterlimit="10" stroke-linecap="round" stroke-linejoin="round"/>
</g>
<defs>
<clipPath id="clip0">
<rect width="13" height="12" fill="white"/>
</clipPath>
</defs>
</svg>
