<svg width="14" height="14" viewBox="0 0 14 14" fill="none" xmlns="http://www.w3.org/2000/svg">
<path d="M6.15113 4.50714C4.75118 5.00061 4.01352 6.54141 4.50699 7.94136C5.00045 9.34129 6.54126 10.079 7.94121 9.5855C9.34115 9.09203 10.0788 7.55121 9.58535 6.15128C9.09188 4.75133 7.55108 4.01367 6.15113 4.50714ZM5.8954 3.78166C6.09566 3.71108 6.20104 3.49179 6.13028 3.29106L5.87455 2.56558C5.80397 2.36533 5.58421 2.26012 5.38395 2.3307C5.18322 2.40146 5.07849 2.62105 5.14907 2.82131L5.4048 3.54679C5.47556 3.74752 5.69467 3.85242 5.8954 3.78166ZM8.19693 10.311C7.9962 10.3817 7.89147 10.6013 7.96205 10.8016L8.21778 11.5271C8.28854 11.7278 8.50765 11.8327 8.70838 11.7619C8.90864 11.6913 9.01402 11.4721 8.94326 11.2713L8.68753 10.5459C8.61695 10.3456 8.39719 10.2404 8.19693 10.311ZM9.05306 3.74337L9.38519 3.04963C9.47694 2.85799 9.39603 2.62844 9.20439 2.53669C9.01272 2.44495 8.7832 2.52586 8.69145 2.7175L8.35932 3.41124C8.26755 3.60289 8.34846 3.83244 8.54013 3.92418C8.73176 4.01591 8.96128 3.935 9.05306 3.74337ZM5.03849 10.3501L4.7064 11.0438C4.61461 11.2355 4.69554 11.4651 4.88721 11.5567C5.07883 11.6485 5.30835 11.5676 5.4001 11.376L5.73223 10.6822C5.82367 10.4896 5.74309 10.261 5.55142 10.1693C5.3598 10.0775 5.12992 10.1575 5.03849 10.3501ZM3.78151 8.19709C3.71092 7.99683 3.49116 7.89162 3.29091 7.96221L2.56543 8.21793C2.3647 8.28869 2.25996 8.50828 2.33055 8.70854C2.40131 8.90927 2.62042 9.01417 2.82115 8.94341L3.54663 8.68769C3.74689 8.6171 3.85227 8.39782 3.78151 8.19709ZM11.2712 5.14923L10.5457 5.40495C10.345 5.47571 10.2402 5.6953 10.3108 5.89556C10.3816 6.09629 10.6007 6.20119 10.8014 6.13043L11.5269 5.87471C11.7272 5.80412 11.8325 5.58484 11.7618 5.38411C11.6912 5.18385 11.4714 5.07864 11.2712 5.14923ZM3.41028 5.73241C3.6019 5.82416 3.83147 5.74324 3.92322 5.5516C4.01495 5.35997 3.93403 5.13042 3.74241 5.03866L3.04867 4.70653C2.85703 4.61478 2.62746 4.6957 2.53574 4.88734C2.44399 5.07898 2.5249 5.30853 2.71654 5.40027L3.41028 5.73241ZM10.6814 8.35992C10.4888 8.26852 10.2602 8.34909 10.1685 8.54073C10.0767 8.73232 10.1567 8.96226 10.3493 9.05366L11.043 9.38579C11.2346 9.47751 11.4642 9.39659 11.556 9.20499C11.6477 9.01336 11.5668 8.78376 11.3752 8.69205L10.6814 8.35992Z" fill="#97D5B0"/>
</svg>
