<svg width="28" height="28" viewBox="0 0 28 28" fill="none" xmlns="http://www.w3.org/2000/svg">
<rect width="28" height="28" rx="14" fill="#55AF7A"/>
<path d="M21 9.42063C20.4849 9.66181 19.9313 9.82424 19.3503 9.89746C19.9436 9.52276 20.3992 8.92904 20.6132 8.22149C20.0585 8.5685 19.4437 8.82075 18.7892 8.95673C18.2659 8.36792 17.5187 8 16.6927 8C14.8382 8 13.4756 9.82486 13.8944 11.7192C11.508 11.5931 9.39167 10.3872 7.97475 8.55435C7.22225 9.91591 7.5845 11.6971 8.86317 12.5991C8.393 12.5831 7.94967 12.4471 7.56292 12.2201C7.53142 13.6235 8.48517 14.9364 9.8665 15.2287C9.46225 15.3443 9.0195 15.3714 8.56917 15.2804C8.93433 16.4838 9.99483 17.3593 11.2525 17.3839C10.045 18.3825 8.52367 18.8285 7 18.639C8.27108 19.4986 9.78133 20 11.403 20C16.7358 20 19.7487 15.2496 19.5667 10.9889C20.1279 10.5613 20.615 10.0279 21 9.42063Z" fill="white"/>
</svg>
